<svg xmlns="http://www.w3.org/2000/svg" viewBox="-1.2428 -1.3055 2.5886 2.5886"><rect x="-1.2428" y="-1.3055" width="2.5886" height="2.5886" rx="0.5695" fill="#0a0e1c"/><path d="M0.2142 -0.2393L0.2261 0.2679L-0.2839 0.1259Z" fill="#a0390d" stroke="#a0390d" stroke-width="0.012" stroke-linejoin="round"/><path d="M0.2261 0.2679L-0.2544 0.5896L-0.2839 0.1259Z" fill="#b23f0f" stroke="#b23f0f" stroke-width="0.012" stroke-linejoin="round"/><path d="M0.2142 -0.2393L0.6567 0.1634L0.2261 0.2679Z" fill="#ac3d0e" stroke="#ac3d0e" stroke-width="0.012" stroke-linejoin="round"/><path d="M-0.2839 0.1259L-0.2544 0.5896L-0.8336 0.4455Z" fill="#a33a0d" stroke="#a33a0d" stroke-width="0.012" stroke-linejoin="round"/><path d="M0.2261 0.2679L0.0952 0.8301L-0.2544 0.5896Z" fill="#c74610" stroke="#c74610" stroke-width="0.012" stroke-linejoin="round"/><path d="M0.2142 -0.2393L-0.2839 0.1259L-0.2762 -0.3187Z" fill="#722809" stroke="#722809" stroke-width="0.012" stroke-linejoin="round"/><path d="M0.2261 0.2679L0.6567 0.1634L0.5478 0.6216Z" fill="#c24510" stroke="#c24510" stroke-width="0.012" stroke-linejoin="round"/><path d="M-0.5509 -0.0384L-0.2839 0.1259L-0.8336 0.4455Z" fill="#772a0a" stroke="#772a0a" stroke-width="0.012" stroke-linejoin="round"/><path d="M-0.2762 -0.3187L-0.2839 0.1259L-0.5509 -0.0384Z" fill="#722809" stroke="#722809" stroke-width="0.012" stroke-linejoin="round"/><path d="M0.2261 0.2679L0.5478 0.6216L0.0952 0.8301Z" fill="#c84610" stroke="#c84610" stroke-width="0.012" stroke-linejoin="round"/><path d="M-0.8336 0.4455L-0.2544 0.5896L-0.565 0.7314Z" fill="#eee0d1" stroke="#eee0d1" stroke-width="0.012" stroke-linejoin="round"/><path d="M0.115 -0.3764L0.2142 -0.2393L-0.2762 -0.3187Z" fill="#722809" stroke="#722809" stroke-width="0.012" stroke-linejoin="round"/><path d="M0.2142 -0.2393L0.4983 -0.2878L0.6567 0.1634Z" fill="#89300b" stroke="#89300b" stroke-width="0.012" stroke-linejoin="round"/><path d="M-0.2544 0.5896L0.0952 0.8301L-0.3221 0.9083Z" fill="#fff1e1" stroke="#fff1e1" stroke-width="0.012" stroke-linejoin="round"/><path d="M-0.5509 -0.0384L-0.8336 0.4455L-0.6441 0.1562Z" fill="#eb681c" stroke="#eb681c" stroke-width="0.012" stroke-linejoin="round"/><path d="M0.115 -0.3764L0.4983 -0.2878L0.2142 -0.2393Z" fill="#722809" stroke="#722809" stroke-width="0.012" stroke-linejoin="round"/><path d="M-0.565 0.7314L-0.2544 0.5896L-0.3221 0.9083Z" fill="#f5e6d7" stroke="#f5e6d7" stroke-width="0.012" stroke-linejoin="round"/><path d="M-0.2762 -0.3187L-0.5509 -0.0384L-0.5709 -0.1421Z" fill="#964212" stroke="#964212" stroke-width="0.012" stroke-linejoin="round"/><path d="M-0.2762 -0.3187L-0.5593 -0.9077L-0.5368 -0.8996Z" fill="#842f0b" stroke="#842f0b" stroke-width="0.012" stroke-linejoin="round"/><path d="M-0.5709 -0.1421L-0.5509 -0.0384L-0.6441 0.1562Z" fill="#964212" stroke="#964212" stroke-width="0.012" stroke-linejoin="round"/><path d="M-0.5709 -0.1421L-0.5593 -0.9077L-0.2762 -0.3187Z" fill="#94340c" stroke="#94340c" stroke-width="0.012" stroke-linejoin="round"/><path d="M0.6567 0.1634L0.9367 0.5161L0.5478 0.6216Z" fill="#bf4310" stroke="#bf4310" stroke-width="0.012" stroke-linejoin="round"/><path d="M-0.6182 -0.8724L-0.63 -1.055L-0.5593 -0.9077Z" fill="#16121b" stroke="#16121b" stroke-width="0.012" stroke-linejoin="round"/><path d="M0.5478 0.6216L0.3141 0.9336L0.0952 0.8301Z" fill="#ffffef" stroke="#ffffef" stroke-width="0.012" stroke-linejoin="round"/><path d="M0.4983 -0.2878L0.7492 0.0134L0.6567 0.1634Z" fill="#89300b" stroke="#89300b" stroke-width="0.012" stroke-linejoin="round"/><path d="M-0.5593 -0.9077L-0.63 -1.055L-0.5368 -0.8996Z" fill="#15111a" stroke="#15111a" stroke-width="0.012" stroke-linejoin="round"/><path d="M-0.5709 -0.1421L-0.6182 -0.8724L-0.5593 -0.9077Z" fill="#94340c" stroke="#94340c" stroke-width="0.012" stroke-linejoin="round"/><path d="M-0.5277 0.4079L-0.565 0.7314L-0.8336 0.4455Z" fill="#d4c8ba" stroke="#d4c8ba" stroke-width="0.012" stroke-linejoin="round"/><path d="M-0.5709 -0.1421L-0.5676 -0.8908L-0.63 -1.055Z" fill="#e4651b" stroke="#e4651b" stroke-width="0.012" stroke-linejoin="round"/><path d="M-0.5277 0.4079L-0.8336 0.4455L-0.6441 0.1562Z" fill="#fff1e1" stroke="#fff1e1" stroke-width="0.012" stroke-linejoin="round"/><path d="M-0.5709 -0.1421L-0.5153 -0.2747L-0.5676 -0.8908Z" fill="#dd621b" stroke="#dd621b" stroke-width="0.012" stroke-linejoin="round"/><path d="M0.004 -0.2655L0.115 -0.3764L-0.2762 -0.3187Z" fill="#f56c1d" stroke="#f56c1d" stroke-width="0.012" stroke-linejoin="round"/><path d="M-0.63 -1.055L-0.5676 -0.8908L-0.2549 -0.3618Z" fill="#d05c19" stroke="#d05c19" stroke-width="0.012" stroke-linejoin="round"/><path d="M0.7492 0.0134L0.9367 0.5161L0.6567 0.1634Z" fill="#9a360d" stroke="#9a360d" stroke-width="0.012" stroke-linejoin="round"/><path d="M-0.2762 -0.3187L-0.5368 -0.8996L-0.164 -0.2781Z" fill="#842f0b" stroke="#842f0b" stroke-width="0.012" stroke-linejoin="round"/><path d="M-0.2549 -0.3618L-0.5676 -0.8908L-0.5153 -0.2747Z" fill="#3f2019" stroke="#3f2019" stroke-width="0.012" stroke-linejoin="round"/><path d="M0.004 -0.2655L0.4983 -0.2878L0.115 -0.3764Z" fill="#eb681c" stroke="#eb681c" stroke-width="0.012" stroke-linejoin="round"/><path d="M-0.4387 -0.0691L-0.6441 0.1562L-0.5709 -0.1421Z" fill="#f26b1d" stroke="#f26b1d" stroke-width="0.012" stroke-linejoin="round"/><path d="M0.5968 0.7778L0.3141 0.9336L0.5478 0.6216Z" fill="#fffeed" stroke="#fffeed" stroke-width="0.012" stroke-linejoin="round"/><path d="M-0.3221 0.9083L0.0952 0.8301L-0.0873 1.0326Z" fill="#fff0e0" stroke="#fff0e0" stroke-width="0.012" stroke-linejoin="round"/><path d="M0.9367 0.5161L0.5968 0.7778L0.5478 0.6216Z" fill="#fffeed" stroke="#fffeed" stroke-width="0.012" stroke-linejoin="round"/><path d="M-0.164 -0.2781L-0.5153 -0.2747L-0.5709 -0.1421Z" fill="#ff741f" stroke="#ff741f" stroke-width="0.012" stroke-linejoin="round"/><path d="M-0.3599 0.9199L-0.3221 0.9083L-0.565 0.7314Z" fill="#c8bdb0" stroke="#c8bdb0" stroke-width="0.012" stroke-linejoin="round"/><path d="M0.004 -0.2655L-0.2762 -0.3187L-0.164 -0.2781Z" fill="#de621b" stroke="#de621b" stroke-width="0.012" stroke-linejoin="round"/><path d="M-0.63 -1.055L-0.2549 -0.3618L-0.164 -0.2781Z" fill="#c95918" stroke="#c95918" stroke-width="0.012" stroke-linejoin="round"/><path d="M0.3141 0.9336L-0.0873 1.0326L0.0952 0.8301Z" fill="#fff3e3" stroke="#fff3e3" stroke-width="0.012" stroke-linejoin="round"/><path d="M-0.164 -0.2781L-0.2549 -0.3618L-0.5153 -0.2747Z" fill="#ff741f" stroke="#ff741f" stroke-width="0.012" stroke-linejoin="round"/><path d="M-0.4586 0.1115L-0.5277 0.4079L-0.6441 0.1562Z" fill="#ee691d" stroke="#ee691d" stroke-width="0.012" stroke-linejoin="round"/><path d="M0.4983 -0.2878L0.6185 -0.0947L0.7492 0.0134Z" fill="#a84a14" stroke="#a84a14" stroke-width="0.012" stroke-linejoin="round"/><path d="M-0.4387 -0.0691L-0.4586 0.1115L-0.6441 0.1562Z" fill="#f56c1d" stroke="#f56c1d" stroke-width="0.012" stroke-linejoin="round"/><path d="M-0.5277 0.4079L-0.3599 0.9199L-0.565 0.7314Z" fill="#dbcec0" stroke="#dbcec0" stroke-width="0.012" stroke-linejoin="round"/><path d="M-0.164 -0.2781L-0.4387 -0.0691L-0.5709 -0.1421Z" fill="#ff7520" stroke="#ff7520" stroke-width="0.012" stroke-linejoin="round"/><path d="M0.4983 -0.2878L0.6526 -0.8522L0.7243 -0.8565Z" fill="#722809" stroke="#722809" stroke-width="0.012" stroke-linejoin="round"/><path d="M0.6185 -0.0947L0.4983 -0.2878L0.7243 -0.8565Z" fill="#b5400f" stroke="#b5400f" stroke-width="0.012" stroke-linejoin="round"/><path d="M0.7492 0.0134L0.6837 0.2092L0.9367 0.5161Z" fill="#ba5216" stroke="#ba5216" stroke-width="0.012" stroke-linejoin="round"/><path d="M0.4983 -0.2878L0.1402 -0.266L0.6526 -0.8522Z" fill="#722809" stroke="#722809" stroke-width="0.012" stroke-linejoin="round"/><path d="M0.6185 -0.0947L0.6837 0.2092L0.7492 0.0134Z" fill="#964212" stroke="#964212" stroke-width="0.012" stroke-linejoin="round"/><path d="M-0.0873 1.0326L-0.3221 0.9083L-0.3599 0.9199Z" fill="#d8cbbe" stroke="#d8cbbe" stroke-width="0.012" stroke-linejoin="round"/><path d="M-0.3421 0.3201L-0.5277 0.4079L-0.4586 0.1115Z" fill="#f16a1d" stroke="#f16a1d" stroke-width="0.012" stroke-linejoin="round"/><path d="M-0.3381 0.1045L-0.4586 0.1115L-0.4387 -0.0691Z" fill="#fa6f1e" stroke="#fa6f1e" stroke-width="0.012" stroke-linejoin="round"/><path d="M0.2884 -0.3401L0.5945 -0.2305L0.7104 -0.8398Z" fill="#3c1e18" stroke="#3c1e18" stroke-width="0.012" stroke-linejoin="round"/><path d="M0.7483 -0.8179L0.7243 -0.8565L0.7807 -0.9987Z" fill="#19141e" stroke="#19141e" stroke-width="0.012" stroke-linejoin="round"/><path d="M0.7243 -0.8565L0.6526 -0.8522L0.7807 -0.9987Z" fill="#141018" stroke="#141018" stroke-width="0.012" stroke-linejoin="round"/><path d="M0.7807 -0.9987L0.2884 -0.3401L0.7104 -0.8398Z" fill="#a94b14" stroke="#a94b14" stroke-width="0.012" stroke-linejoin="round"/><path d="M0.6185 -0.0947L0.7243 -0.8565L0.7483 -0.8179Z" fill="#b5400f" stroke="#b5400f" stroke-width="0.012" stroke-linejoin="round"/><path d="M0.6185 -0.0947L0.7104 -0.8398L0.5945 -0.2305Z" fill="#f96e1e" stroke="#f96e1e" stroke-width="0.012" stroke-linejoin="round"/><path d="M-0.0555 -0.0799L-0.4387 -0.0691L-0.164 -0.2781Z" fill="#ff741f" stroke="#ff741f" stroke-width="0.012" stroke-linejoin="round"/><path d="M0.1933 0.942L0.5968 0.7778L0.3141 0.9336Z" fill="#9e958b" stroke="#9e958b" stroke-width="0.012" stroke-linejoin="round"/><path d="M0.6185 -0.0947L0.7807 -0.9987L0.7104 -0.8398Z" fill="#fa6e1e" stroke="#fa6e1e" stroke-width="0.012" stroke-linejoin="round"/><path d="M0.4405 0.4466L0.9367 0.5161L0.5968 0.7778Z" fill="#b1a79c" stroke="#b1a79c" stroke-width="0.012" stroke-linejoin="round"/><path d="M0.1402 -0.266L0.5945 -0.2305L0.2884 -0.3401Z" fill="#ee691d" stroke="#ee691d" stroke-width="0.012" stroke-linejoin="round"/><path d="M-0.0555 -0.0799L-0.164 -0.2781L0.004 -0.2655Z" fill="#f96e1e" stroke="#f96e1e" stroke-width="0.012" stroke-linejoin="round"/><path d="M-0.3877 0.5914L-0.3599 0.9199L-0.5277 0.4079Z" fill="#d8cbbe" stroke="#d8cbbe" stroke-width="0.012" stroke-linejoin="round"/><path d="M0.7807 -0.9987L0.1402 -0.266L0.2884 -0.3401Z" fill="#a04713" stroke="#a04713" stroke-width="0.012" stroke-linejoin="round"/><path d="M0.1402 -0.266L0.6185 -0.0947L0.5945 -0.2305Z" fill="#ee691d" stroke="#ee691d" stroke-width="0.012" stroke-linejoin="round"/><path d="M0.4405 0.4466L0.6837 0.2092L0.9367 0.5161Z" fill="#d7cbbd" stroke="#d7cbbd" stroke-width="0.012" stroke-linejoin="round"/><path d="M-0.3877 0.5914L-0.5277 0.4079L-0.3421 0.3201Z" fill="#fd701e" stroke="#fd701e" stroke-width="0.012" stroke-linejoin="round"/><path d="M-0.3381 0.1045L-0.3421 0.3201L-0.4586 0.1115Z" fill="#0c0b11" stroke="#0c0b11" stroke-width="0.012" stroke-linejoin="round"/><path d="M-0.0555 -0.0799L0.004 -0.2655L0.1402 -0.266Z" fill="#ff7520" stroke="#ff7520" stroke-width="0.012" stroke-linejoin="round"/><path d="M-0.0555 -0.0799L-0.3381 0.1045L-0.4387 -0.0691Z" fill="#ff7620" stroke="#ff7620" stroke-width="0.012" stroke-linejoin="round"/><path d="M-0.0873 1.0326L0.1933 0.942L0.3141 0.9336Z" fill="#9e958b" stroke="#9e958b" stroke-width="0.012" stroke-linejoin="round"/><path d="M0.3911 -0.036L0.6185 -0.0947L0.6837 0.2092Z" fill="#cc5a18" stroke="#cc5a18" stroke-width="0.012" stroke-linejoin="round"/><path d="M0.1402 -0.266L0.6185 -0.0947L0.3911 -0.036Z" fill="#f06a1d" stroke="#f06a1d" stroke-width="0.012" stroke-linejoin="round"/><path d="M0.4405 0.4466L0.5968 0.7778L0.1933 0.942Z" fill="#aba197" stroke="#aba197" stroke-width="0.012" stroke-linejoin="round"/><path d="M-0.0555 -0.0799L0.1402 -0.266L0.3911 -0.036Z" fill="#f76d1e" stroke="#f76d1e" stroke-width="0.012" stroke-linejoin="round"/><path d="M0.3911 -0.036L0.6837 0.2092L0.3713 0.1446Z" fill="#cc5a18" stroke="#cc5a18" stroke-width="0.012" stroke-linejoin="round"/><path d="M0.3713 0.1446L0.6837 0.2092L0.4405 0.4466Z" fill="#c65818" stroke="#c65818" stroke-width="0.012" stroke-linejoin="round"/><path d="M-0.2266 0.2476L-0.3421 0.3201L-0.3381 0.1045Z" fill="#0c0b11" stroke="#0c0b11" stroke-width="0.012" stroke-linejoin="round"/><path d="M-0.3877 0.5914L-0.3048 0.9798L-0.3599 0.9199Z" fill="#d4c7ba" stroke="#d4c7ba" stroke-width="0.012" stroke-linejoin="round"/><path d="M-0.2266 0.2476L-0.3877 0.5914L-0.3421 0.3201Z" fill="#fe701e" stroke="#fe701e" stroke-width="0.012" stroke-linejoin="round"/><path d="M-0.1626 1.0264L-0.0873 1.0326L-0.3599 0.9199Z" fill="#d8cbbe" stroke="#d8cbbe" stroke-width="0.012" stroke-linejoin="round"/><path d="M-0.0952 0.2386L-0.3381 0.1045L-0.0555 -0.0799Z" fill="#ff711f" stroke="#ff711f" stroke-width="0.012" stroke-linejoin="round"/><path d="M-0.0952 0.2386L-0.2266 0.2476L-0.3381 0.1045Z" fill="#ff721f" stroke="#ff721f" stroke-width="0.012" stroke-linejoin="round"/><path d="M-0.0555 -0.0799L0.3911 -0.036L0.1874 0.1254Z" fill="#fb6f1e" stroke="#fb6f1e" stroke-width="0.012" stroke-linejoin="round"/><path d="M0.1874 0.1254L0.3911 -0.036L0.3713 0.1446Z" fill="#d75f1a" stroke="#d75f1a" stroke-width="0.012" stroke-linejoin="round"/><path d="M0.1835 0.3411L0.3713 0.1446L0.4405 0.4466Z" fill="#d15d19" stroke="#d15d19" stroke-width="0.012" stroke-linejoin="round"/><path d="M-0.1626 1.0264L-0.3599 0.9199L-0.3048 0.9798Z" fill="#f4e6d7" stroke="#f4e6d7" stroke-width="0.012" stroke-linejoin="round"/><path d="M-0.1626 1.0264L0.1933 0.942L-0.0873 1.0326Z" fill="#9e958b" stroke="#9e958b" stroke-width="0.012" stroke-linejoin="round"/><path d="M-0.0952 0.2386L-0.0555 -0.0799L0.1874 0.1254Z" fill="#fd701e" stroke="#fd701e" stroke-width="0.012" stroke-linejoin="round"/><path d="M0.1656 0.6135L0.4405 0.4466L0.1933 0.942Z" fill="#a79d93" stroke="#a79d93" stroke-width="0.012" stroke-linejoin="round"/><path d="M0.1874 0.1254L0.3713 0.1446L0.1835 0.3411Z" fill="#0b0a10" stroke="#0b0a10" stroke-width="0.012" stroke-linejoin="round"/><path d="M0.1656 0.6135L0.1835 0.3411L0.4405 0.4466Z" fill="#da601a" stroke="#da601a" stroke-width="0.012" stroke-linejoin="round"/><path d="M-0.293 0.6894L-0.3048 0.9798L-0.3877 0.5914Z" fill="#e6d9ca" stroke="#e6d9ca" stroke-width="0.012" stroke-linejoin="round"/><path d="M-0.0952 0.2386L0.1874 0.1254L0.0362 0.258Z" fill="#fe701e" stroke="#fe701e" stroke-width="0.012" stroke-linejoin="round"/><path d="M0.0362 0.258L0.1874 0.1254L0.1835 0.3411Z" fill="#0b0a10" stroke="#0b0a10" stroke-width="0.012" stroke-linejoin="round"/><path d="M-0.1626 0.5847L-0.3877 0.5914L-0.2266 0.2476Z" fill="#fe701e" stroke="#fe701e" stroke-width="0.012" stroke-linejoin="round"/><path d="M0.1656 0.6135L0.1933 0.942L0.0272 0.993Z" fill="#9e958b" stroke="#9e958b" stroke-width="0.012" stroke-linejoin="round"/><path d="M0.0362 0.258L0.1835 0.3411L0.1656 0.6135Z" fill="#de621b" stroke="#de621b" stroke-width="0.012" stroke-linejoin="round"/><path d="M-0.1626 0.5847L-0.2266 0.2476L-0.0952 0.2386Z" fill="#ff741f" stroke="#ff741f" stroke-width="0.012" stroke-linejoin="round"/><path d="M-0.1626 1.0264L0.0272 0.993L0.1933 0.942Z" fill="#fdeede" stroke="#fdeede" stroke-width="0.012" stroke-linejoin="round"/><path d="M-0.1626 0.5847L-0.293 0.6894L-0.3877 0.5914Z" fill="#ff731f" stroke="#ff731f" stroke-width="0.012" stroke-linejoin="round"/><path d="M-0.1626 0.5847L-0.0952 0.2386L0.0362 0.258Z" fill="#ff731f" stroke="#ff731f" stroke-width="0.012" stroke-linejoin="round"/><path d="M-0.1626 0.5847L0.0362 0.258L0.1656 0.6135Z" fill="#de621b" stroke="#de621b" stroke-width="0.012" stroke-linejoin="round"/><path d="M-0.0164 0.7004L0.1656 0.6135L0.0272 0.993Z" fill="#b8ada2" stroke="#b8ada2" stroke-width="0.012" stroke-linejoin="round"/><path d="M-0.2102 0.9925L-0.1626 1.0264L-0.3048 0.9798Z" fill="#9e958b" stroke="#9e958b" stroke-width="0.012" stroke-linejoin="round"/><path d="M-0.1626 0.5847L0.1656 0.6135L-0.0164 0.7004Z" fill="#e4651b" stroke="#e4651b" stroke-width="0.012" stroke-linejoin="round"/><path d="M-0.2102 0.9925L0.0272 0.993L-0.1626 1.0264Z" fill="#9e958b" stroke="#9e958b" stroke-width="0.012" stroke-linejoin="round"/><path d="M-0.2102 0.9925L-0.3048 0.9798L-0.306 0.9347Z" fill="#9e958b" stroke="#9e958b" stroke-width="0.012" stroke-linejoin="round"/><path d="M-0.0985 0.943L-0.0164 0.7004L0.0272 0.993Z" fill="#9e958b" stroke="#9e958b" stroke-width="0.012" stroke-linejoin="round"/><path d="M-0.1626 0.5847L-0.2261 0.8863L-0.293 0.6894Z" fill="#ff731f" stroke="#ff731f" stroke-width="0.012" stroke-linejoin="round"/><path d="M-0.2102 0.9925L-0.0985 0.943L0.0272 0.993Z" fill="#9e958b" stroke="#9e958b" stroke-width="0.012" stroke-linejoin="round"/><path d="M-0.2261 0.8863L-0.306 0.9347L-0.293 0.6894Z" fill="#19151f" stroke="#19151f" stroke-width="0.012" stroke-linejoin="round"/><path d="M-0.1626 0.5847L-0.0164 0.7004L-0.2261 0.8863Z" fill="#e3641b" stroke="#e3641b" stroke-width="0.012" stroke-linejoin="round"/><path d="M-0.2261 0.8863L-0.0164 0.7004L-0.0985 0.943Z" fill="#17131c" stroke="#17131c" stroke-width="0.012" stroke-linejoin="round"/><path d="M-0.2261 0.8863L-0.2102 0.9925L-0.306 0.9347Z" fill="#16121b" stroke="#16121b" stroke-width="0.012" stroke-linejoin="round"/><path d="M-0.2261 0.8863L-0.0985 0.943L-0.2102 0.9925Z" fill="#151119" stroke="#151119" stroke-width="0.012" stroke-linejoin="round"/></svg>